HIERARCHY
ROOT Hips
{
  OFFSET 3.13124 94.3669 -3.18751
  CHANNELS  6 Xposition Yposition Zposition Zrotation Xrotation Yrotation
  JOINT LeftUpLeg
  {
    OFFSET 8.64259 1.95398 -2.38835
    CHANNELS 3 Zrotation Xrotation Yrotation
    JOINT LeftLeg
    {
      OFFSET 43.7702 0 0
      CHANNELS 3 Zrotation Xrotation Yrotation
      JOINT LeftFoot
      {
        OFFSET 40.6238 0 0
        CHANNELS 3 Zrotation Xrotation Yrotation
        JOINT LeftToeBase
        {
          OFFSET 12.7242 0 0
          CHANNELS 3 Zrotation Xrotation Yrotation
          End Site
          {
            OFFSET 0 0 0
          }
        }
      }
    }
  }
  JOINT RightUpLeg
  {
    OFFSET -8.2249 1.95398 -2.59336
    CHANNELS 3 Zrotation Xrotation Yrotation
    JOINT RightLeg
    {
      OFFSET 43.5653 0 0
      CHANNELS 3 Zrotation Xrotation Yrotation
      JOINT RightFoot
      {
        OFFSET 40.6238 0 0
        CHANNELS 3 Zrotation Xrotation Yrotation
        JOINT RightToeBase
        {
          OFFSET 12.7242 0 0
          CHANNELS 3 Zrotation Xrotation Yrotation
          End Site
          {
            OFFSET 0 0 0
          }
        }
      }
    }
  }
  JOINT Spine
  {
    OFFSET 0.165834 0.87714 6.61349
    CHANNELS 3 Zrotation Xrotation Yrotation
    JOINT Spine1
    {
      OFFSET 7.38962 1.71661e-005 0
      CHANNELS 3 Zrotation Xrotation Yrotation
      JOINT Spine2
      {
        OFFSET 11.9445 1.14441e-005 0
        CHANNELS 3 Zrotation Xrotation Yrotation
        JOINT Spine3
        {
          OFFSET 14.7254 4.19617e-005 0
          CHANNELS 3 Zrotation Xrotation Yrotation
          JOINT Spine4
          {
            OFFSET 10.9679 0 0
            CHANNELS 3 Zrotation Xrotation Yrotation
            JOINT RightShoulder
            {
              OFFSET 2.46616 -1.6653 3.69651
              CHANNELS 3 Zrotation Xrotation Yrotation
              JOINT RightArm
              {
                OFFSET 13.0012 0 0
                CHANNELS 3 Zrotation Xrotation Yrotation
                JOINT RightForeArm
                {
                  OFFSET 28.7848 1.52588e-005 0
                  CHANNELS 3 Zrotation Xrotation Yrotation
                  JOINT RightHand
                  {
                    OFFSET 26.5688 1.52588e-005 0
                    CHANNELS 3 Zrotation Xrotation Yrotation
                    End Site
                    {
                      OFFSET 0 0 0
                    }
                  }
                }
              }
            }
            JOINT LeftShoulder
            {
              OFFSET 2.38034 -1.29275 -3.75231
              CHANNELS 3 Zrotation Xrotation Yrotation
              JOINT LeftArm
              {
                OFFSET 16.3182 6.10352e-005 0
                CHANNELS 3 Zrotation Xrotation Yrotation
                JOINT LeftForeArm
                {
                  OFFSET 27.0901 0 0
                  CHANNELS 3 Zrotation Xrotation Yrotation
                  JOINT LeftHand
                  {
                    OFFSET 24.5451 1.52588e-005 0
                    CHANNELS 3 Zrotation Xrotation Yrotation
                    End Site
                    {
                      OFFSET 0 0 0
                    }
                  }
                }
              }
            }
            JOINT Neck
            {
              OFFSET 5.0226 -0.0266342 0
              CHANNELS 3 Zrotation Xrotation Yrotation
              JOINT Head
              {
                OFFSET 6.69363 2.86102e-005 0
                CHANNELS 3 Zrotation Xrotation Yrotation
                End Site
                {
                  OFFSET 0 0 0
                }
              }
            }
          }
        }
      }
    }
  }
}
MOTION
Frames:	18
Frame Time:	0.0333333
25.5175 81.4252 1.43805 -106.506 -84.8204 -111.921 -164.415 -0.378873 104.945 18.7919 14.4899 -61.4768 35.0626 29.3741 28.4674 28.7808 4.34128e-006 1.40684e-005 177.28 18.6598 61.9807 -52.0122 -0.278027 0.102051 79.2604 15.6119 6.17438 28.7808 1.37302e-005 2.81855e-005 1.11946 4.89459 -95.8585 16.9715 1.57948 -6.04716 5.28722 1.31231 -6.11048 -17.1643 3.32149 -5.29649 2.84834 3.32149 -5.2965 101.537 10.6755 -86.5534 36.9623 -60.9669 -37.9334 -35.1945 -1.29102 -90.9504 -38.8806 3.2963 -14.6614 -87.0163 -35.1519 80.31 -36.9248 14.806 13.189 20.5969 -4.72147 -102.004 -44.8219 17.2474 -47.2185 -3.58993 9.8719 55.4995 -11.0692 4.08485 -6.7144 
26.1525 81.2636 1.66042 -110.707 -84.9239 -116.876 -164.87 -1.24549 103.826 18.929 14.2066 -61.3226 34.9209 29.3674 28.5063 28.7808 4.34128e-006 1.40684e-005 176.934 18.3577 60.4504 -51.7472 -0.94876 0.0695155 79.3705 16.1482 6.38775 28.7808 1.37302e-005 2.81855e-005 1.21413 4.93904 -96.0534 16.876 1.71322 -6.5775 5.1892 1.42272 -6.6461 -17.2469 3.60769 -5.76316 2.76575 3.60768 -5.76321 101.347 13.4261 -88.7751 35.4611 -60.2014 -39.8121 -34.332 -1.19462 -91.0578 -42.8221 3.3185 -13.7301 -86.8444 -35.3238 80.6591 -35.229 11.7244 11.8574 24.2413 -4.90616 -100.777 -46.4582 19.4851 -50.5108 -4.5078 9.41937 56.9733 -9.98462 3.8456 -5.58154 
26.722 81.0888 1.84067 -115.456 -85.3738 -122.334 -165.311 -1.67423 102.742 18.8582 14.2959 -61.2826 35.0691 29.3968 28.4572 28.7808 4.34128e-006 1.40684e-005 176.595 18.0333 59.1764 -51.5266 -0.775659 0.0821746 79.7751 16.6044 6.48715 28.7808 1.37302e-005 2.81855e-005 1.2691 4.96178 -96.2378 16.8254 1.7792 -7.04998 5.13622 1.46783 -7.12101 -17.2838 3.81292 -6.19469 2.72881 3.81292 -6.1947 101.182 15.7197 -91.3835 34.2302 -59.247 -40.7734 -33.2895 -0.840979 -91.6147 -46.3481 3.06795 -12.4231 -86.8548 -35.2882 80.6332 -33.3779 8.44387 10.8644 27.4191 -5.1495 -100.11 -47.8261 21.8168 -53.9571 -5.15734 8.9802 58.344 -9.07455 3.58841 -5.22694 
27.2882 80.9717 2.01682 -123.163 -86.2212 -130.853 -165.826 -1.76937 101.486 18.7254 14.7953 -61.2455 35.0769 29.3619 28.4232 28.7808 4.34128e-006 1.40684e-005 176.284 17.8134 57.7822 -51.5871 -1.00258 0.0791612 79.4319 17.2298 6.81258 28.7808 1.37302e-005 2.81855e-005 1.26968 4.96567 -96.42 16.8144 1.78368 -7.41217 5.12303 1.45645 -7.48293 -17.2823 3.92421 -6.53997 2.73038 3.92419 -6.53999 101.04 17.4153 -94.1876 34.3495 -57.9816 -40.5636 -33.2807 -0.952868 -91.418 -50.1847 2.72731 -11.0497 -86.5861 -35.0719 81.0679 -31.5073 5.38596 9.44135 30.4413 -5.42658 -99.6549 -48.811 24.0394 -57.3093 -4.93432 9.17366 58.8865 -9.32383 3.55241 -4.59585 
27.7215 80.8125 2.15887 -136.234 -87.1676 -144.661 -166.367 -1.58041 100.39 18.5219 15.5622 -61.3385 35.6755 29.2015 27.9901 28.7808 4.34128e-006 1.40684e-005 175.982 17.5171 56.6734 -51.6262 -0.48494 0.117186 79.5735 17.9032 7.04304 28.7808 1.37302e-005 2.81855e-005 1.24885 4.95412 -96.5544 16.8351 1.76608 -7.68698 5.14242 1.42709 -7.75667 -17.2534 3.98964 -6.80793 2.75924 3.98964 -6.80798 100.846 17.9525 -96.7547 35.1247 -56.8012 -38.9449 -32.8058 -0.860572 -91.5611 -52.6882 2.5697 -10.4051 -86.069 -34.5096 81.883 -29.9611 2.97697 8.60484 29.1462 -5.57265 -100.326 -52.3507 25.895 -57.0327 -5.22632 8.88358 58.7604 -8.31824 3.37117 -3.47397 
28.1099 80.6365 2.27943 -170.741 -88.0748 -179.989 -166.826 -0.979621 99.224 18.17 16.6843 -61.6353 35.9103 29.2398 27.9335 28.7808 4.34128e-006 1.40684e-005 175.692 17.1582 55.608 -51.7432 0.49309 0.183326 79.8596 18.819 7.32442 28.7808 1.37302e-005 2.81855e-005 1.18889 4.92123 -96.6618 16.9019 1.71335 -7.90374 5.20771 1.36494 -7.97091 -17.176 4.004 -7.03101 2.83662 4.00398 -7.03106 100.72 18.529 -98.9537 35.6884 -55.9269 -37.6759 -32.5434 -0.761952 -91.7279 -55.2862 1.99875 -9.00734 -85.4023 -34.0535 83.0079 -28.2489 0.343273 7.0478 26.8979 -5.53651 -101.067 -57.2486 28.0595 -55.9037 -5.13257 8.90447 58.9363 -7.82579 3.29786 -2.99493 
28.4002 80.4293 2.35445 143.325 -87.5787 133.266 -167.212 -0.399908 98.2395 17.8824 18.0348 -62.1866 36.1088 29.1457 27.7634 28.7808 4.34128e-006 1.40684e-005 176.314 16.5134 54.684 -52.9759 2.16617 0.287995 80.6017 20.4158 7.72108 28.7808 1.37302e-005 2.81855e-005 1.14759 4.92286 -96.6646 16.9029 1.69091 -8.05626 5.20773 1.33589 -8.12224 -17.1692 4.02797 -7.1836 2.8435 4.028 -7.1836 100.535 18.2279 -100.358 36.6072 -54.9603 -35.856 -32.9441 -0.702312 -91.8467 -57.1179 1.69298 -8.29764 -85.0235 -33.3219 83.5638 -26.5378 -2.57181 4.40135 29.3966 -5.66048 -100.4 -56.1468 30.2303 -60.5887 -4.70109 9.07565 59.054 -7.52073 3.19004 -2.94564 
28.5824 80.188 2.33158 119.659 -86.0931 108.754 -167.586 0.438075 97.295 17.5753 19.4986 -62.9229 36.0142 29.0798 27.7371 28.7808 4.34128e-006 1.40684e-005 176.881 15.9053 53.8827 -54.1948 4.17382 0.407903 81.0263 21.9282 8.1435 28.7808 1.37302e-005 2.81855e-005 1.09749 4.9249 -96.6374 16.9076 1.6799 -8.1614 5.21174 1.32057 -8.22686 -17.1602 4.04983 -7.28714 2.85249 4.04984 -7.2872 100.336 17.7468 -101.507 37.5018 -54.2587 -34.4777 -31.8505 -0.807088 -91.6371 -58.7096 1.95657 -8.66133 -84.4661 -32.6359 84.4749 -24.9012 -5.38287 2.70922 30.8617 -6.53183 -101.406 -55.6216 30.6944 -62.0452 -4.57785 8.78277 58.9918 -6.43883 2.80213 -2.26189 
28.6361 79.9347 2.16784 110.402 -84.1508 98.7508 -167.838 1.43543 96.4458 17.1708 21.2184 -63.7019 35.9669 29.0772 27.7658 28.7808 4.34128e-006 1.40684e-005 177.736 15.3458 53.4071 -55.963 6.26018 0.629393 81.2529 23.0143 8.45283 28.7808 1.37302e-005 2.81855e-005 1.08684 4.9699 -96.6199 16.8197 1.72854 -8.2704 5.12325 1.36415 -8.33782 -17.2451 4.12783 -7.37716 2.76754 4.12781 -7.37718 100.37 17.8759 -101.464 38.135 -53.8045 -34.3474 -32.4994 -1.33757 -90.6872 -59.6807 2.51938 -9.58419 -83.9274 -32.2417 85.4199 -23.3473 -8.35105 0.151941 27.1977 -6.25466 -102.363 -60.5674 32.2645 -59.3334 -4.03972 8.8538 59.3099 -5.82077 2.53587 -2.04375 
28.5808 79.6691 1.9143 106.729 -81.8579 94.399 -167.984 2.54289 95.72 16.6143 23.2611 -64.6195 35.8747 29.1793 27.9106 28.7808 4.34128e-006 1.40684e-005 178.652 14.625 52.9602 -57.9698 6.55509 0.883362 81.6461 23.0435 8.33839 28.7808 1.37302e-005 2.81855e-005 1.03793 5.03102 -96.5428 16.705 1.73408 -8.29171 5.00838 1.36894 -8.35933 -17.3592 4.13926 -7.39589 2.65346 4.13925 -7.39593 100.32 17.4037 -101.134 38.5179 -53.472 -34.5401 -32.7775 -1.81662 -89.8352 -60.3575 2.89885 -10.1862 -83.2282 -31.4708 86.6228 -22.1978 -10.7948 -1.88108 23.5703 -5.94299 -103.456 -63.3276 32.2921 -56.8815 -3.34912 9.16707 59.4428 -5.761 2.42375 -1.99116 
28.4252 79.3822 1.6017 105.925 -79.2665 92.9803 -168.013 3.66083 95.0944 15.8518 25.6648 -65.6841 35.8557 29.2836 28.0264 28.7808 4.34128e-006 1.40684e-005 179.198 13.5752 52.4435 -59.5296 4.20017 0.681981 82.6759 22.5712 7.93758 28.7808 1.37302e-005 2.81855e-005 0.973668 5.12546 -96.452 16.5257 1.71837 -8.36757 4.82848 1.34939 -8.43437 -17.5351 4.14783 -7.47356 2.47758 4.14783 -7.47359 100.377 17.5734 -100.809 38.1205 -53.3541 -35.5898 -32.4513 -2.04092 -89.4106 -60.7299 2.85134 -10.0629 -82.7124 -31.208 87.5729 -21.1914 -13.2473 -4.89898 22.5125 -5.45938 -102.881 -61.6509 32.5414 -58.7959 -2.68809 9.44362 60.1176 -6.18271 2.24292 -2.3244 
28.1259 79.1135 1.24079 105.164 -76.2508 91.8156 -167.918 5.19542 94.6748 14.8573 28.6125 -66.8457 35.9568 29.3349 28.0456 28.7808 4.34128e-006 1.40684e-005 179.337 12.2908 52.1229 -60.6035 -2.57883 -0.0939991 84.4018 20.5554 6.89704 28.7808 1.37302e-005 2.81855e-005 0.860315 5.1931 -96.3423 16.4002 1.60526 -8.4347 4.70254 1.23384 -8.49655 -17.6556 4.05911 -7.5713 2.35708 4.0591 -7.57132 100.34 17.5819 -101.173 38.0293 -52.8778 -36.1374 -32.4549 -2.32742 -88.8894 -61.5482 2.80191 -9.8981 -82.2331 -31.0188 88.472 -20.2245 -15.8903 -7.71616 20.7651 -5.00169 -102.667 -61.481 32.5629 -58.9997 -2.43037 9.42142 60.403 -6.52192 2.00851 -2.11788 
27.6349 78.8373 0.816686 104.578 -72.7048 90.9782 -167.727 7.05007 94.2574 13.5465 32.1292 -67.9696 36.1699 29.5 28.139 28.7808 4.34128e-006 1.40684e-005 179.541 10.9159 52.0863 -62.2283 -11.8439 -0.969019 84.6903 16.4204 5.5242 28.7808 1.37302e-005 2.81855e-005 0.747363 5.24183 -96.2247 16.3117 1.48832 -8.47249 4.61374 1.11538 -8.52954 -17.7402 3.95858 -7.64022 2.27243 3.95858 -7.64027 100.296 17.5704 -101.593 38.1987 -52.1224 -35.9197 -32.9888 -2.5211 -88.6256 -62.1387 2.62227 -9.54074 -82.1613 -31.0959 88.6176 -19.301 -18.7548 -10.1344 20.1311 -4.83605 -102.573 -59.9629 32.1384 -59.8472 -2.43951 9.10072 61.0858 -6.79252 1.62569 -2.61812 
26.9654 78.6137 0.301848 103.943 -68.978 90.1184 -167.591 8.99709 93.7436 12.8845 35.762 -69.0568 36.4448 29.314 27.8593 28.7808 4.34128e-006 1.40684e-005 179.595 9.83142 51.9958 -63.7386 -23.2156 -1.93489 83.4344 11.885 4.29213 28.7808 1.37302e-005 2.81855e-005 0.64018 5.27428 -96.0803 16.2545 1.36158 -8.40507 4.55677 0.991689 -8.45634 -17.7975 3.81765 -7.6156 2.21516 3.81764 -7.61564 100.198 16.9584 -101.445 39.0062 -51.3844 -34.5204 -34.2237 -2.71012 -88.4991 -60.0671 3.41572 -11.1185 -81.9508 -30.6731 88.9723 -18.6119 -21.2909 -13.1157 20.0375 -4.70401 -102.259 -57.6212 32.0601 -62.0301 -2.18005 8.94657 60.9684 -7.54456 1.33631 -2.47345 
26.095 78.4505 -0.242135 103.288 -65.09 89.2405 -167.547 11.025 93.2213 12.1468 39.1088 -70.0369 36.0344 29.0113 27.7798 28.7808 4.34128e-006 1.40684e-005 179.748 9.0276 52.3979 -65.4252 -31.2988 -2.63088 80.2373 7.98945 3.344 28.7808 1.37302e-005 2.81855e-005 0.544161 5.30026 -95.9793 16.2075 1.24282 -8.3103 4.51035 0.87716 -8.3565 -17.8459 3.67605 -7.56045 2.16675 3.67604 -7.56047 100.228 16.8521 -101.018 38.7276 -51.3983 -35.306 -33.6781 -2.84061 -88.1909 -59.6123 3.48671 -11.2917 -81.9163 -30.5829 89.0291 -17.9563 -24.0008 -15.5756 19.8977 -4.57555 -101.978 -54.7379 31.6335 -64.3925 -2.09767 8.56795 61.0055 -8.05513 0.893974 -2.24373 
25.0492 78.3711 -0.849173 102.476 -61.4775 88.3172 -167.568 12.9898 92.7908 12.4654 42.0109 -71.0299 36.2269 28.0467 26.7377 28.7808 4.34128e-006 1.40684e-005 179.408 8.30556 52.9172 -66.3676 -40.9432 -3.60988 78.2091 3.95005 2.04975 28.7808 1.37302e-005 2.81855e-005 0.500992 5.32473 -95.8958 16.1628 1.21395 -8.22313 4.46615 0.852107 -8.26818 -17.8935 3.62248 -7.48571 2.1191 3.62247 -7.48574 100.105 16.6449 -101.797 38.4842 -51.0605 -34.817 -32.043 -2.32056 -88.8384 -58.2376 3.11999 -10.8013 -81.8791 -30.8716 89.1358 -17.3969 -26.7837 -18.4294 20.3497 -4.45935 -101.419 -51.6543 31.2198 -67.2113 -2.15242 8.18951 61.3076 -8.56597 0.502411 -2.09596 
23.808 78.2869 -1.54861 101.76 -57.7856 87.5224 -167.708 15.065 92.2711 12.4419 44.6014 -71.7526 36.0489 27.2545 26.0562 28.7808 4.34128e-006 1.40684e-005 179.073 7.53934 53.9763 -67.2666 -46.9814 -4.33784 77.0019 0.964096 0.966867 28.7808 1.37302e-005 2.81855e-005 0.44945 5.36238 -95.8509 16.0899 1.19237 -8.11208 4.39392 0.835191 -8.15628 -17.9702 3.56955 -7.38605 2.04241 3.56954 -7.38607 99.8145 15.8282 -102.984 38.9229 -50.3854 -33.5974 -31.1484 -2.13952 -89.046 -57.078 3.34538 -11.3678 -81.8278 -31.3256 89.2889 -16.9313 -29.6737 -21.1763 17.3437 -3.84767 -101.177 -53.1452 31.5899 -66.1212 -2.21896 7.79445 61.8936 -9.08571 0.078361 -2.21129 
22.3511 78.2305 -2.35884 100.911 -54.1988 86.8302 -167.9 17.3168 91.8866 13.6344 47.0372 -72.9019 36.0241 25.7405 24.5863 28.7808 4.34128e-006 1.40684e-005 178.944 7.03132 55.7347 -68.1195 -49.0651 -4.6087 76.4757 -1.6875 -0.100001 28.7808 1.37302e-005 2.81855e-005 0.428258 5.41941 -95.8566 15.9766 1.20722 -8.05456 4.28106 0.852728 -8.09949 -18.0861 3.56552 -7.32657 1.92656 3.56552 -7.32661 100.059 16.8961 -102.671 37.6541 -50.0917 -35.876 -29.7296 -2.19318 -88.7173 -56.4306 3.63135 -11.9934 -81.6787 -32.0297 89.6546 -16.5949 -32.4746 -23.3371 16.664 -3.77314 -101.323 -50.3153 30.2525 -67.3016 -2.18472 7.49542 62.6546 -9.72691 -0.33828 -2.38519 
